{
  "accessors": [
    {
      "bufferView": 2,
      "componentType": 5126,
      "count": 3032,
      "max": [
        4511.6044921875,
        4565.98974609375,
        -186.9072723388672
      ],
      "min": [
        871.7514038085938,
        552.8616943359375,
        -3212.1572265625
      ],
      "type": "VEC3"
    },
    {
      "bufferView": 2,
      "byteOffset": 36384,
      "componentType": 5126,
      "count": 3032,
      "max": [
        1.0,
        1.0,
        1.0
      ],
      "min": [
        -1.0,
        -1.0,
        -1.0
      ],
      "type": "VEC3"
    },
    {
      "bufferView": 1,
      "componentType": 5126,
      "count": 3032,
      "max": [
        193.57130432128906,
        219.94064331054688
      ],
      "min": [
        -198.3400421142578,
        -144.57020568847656
      ],
      "type": "VEC2"
    },
    {
      "bufferView": 1,
      "byteOffset": 24256,
      "componentType": 5126,
      "count": 3032,
      "max": [
        193.57130432128906,
        219.94064331054688
      ],
      "min": [
        -198.3400421142578,
        -144.57020568847656
      ],
      "type": "VEC2"
    },
    {
      "bufferView": 1,
      "byteOffset": 48512,
      "componentType": 5126,
      "count": 3032,
      "max": [
        193.57130432128906,
        219.94064331054688
      ],
      "min": [
        -198.3400421142578,
        -144.57020568847656
      ],
      "type": "VEC2"
    },
    {
      "bufferView": 1,
      "byteOffset": 72768,
      "componentType": 5126,
      "count": 3032,
      "max": [
        193.57130432128906,
        219.94064331054688
      ],
      "min": [
        -198.3400421142578,
        -144.57020568847656
      ],
      "type": "VEC2"
    },
    {
      "bufferView": 1,
      "byteOffset": 97024,
      "componentType": 5126,
      "count": 3032,
      "max": [
        193.57130432128906,
        219.94064331054688
      ],
      "min": [
        -198.3400421142578,
        -144.57020568847656
      ],
      "type": "VEC2"
    },
    {
      "bufferView": 1,
      "byteOffset": 121280,
      "componentType": 5126,
      "count": 3032,
      "max": [
        193.57130432128906,
        219.94064331054688
      ],
      "min": [
        -198.3400421142578,
        -144.57020568847656
      ],
      "type": "VEC2"
    },
    {
      "bufferView": 1,
      "byteOffset": 145536,
      "componentType": 5126,
      "count": 3032,
      "max": [
        193.57130432128906,
        219.94064331054688
      ],
      "min": [
        -198.3400421142578,
        -144.57020568847656
      ],
      "type": "VEC2"
    },
    {
      "bufferView": 1,
      "byteOffset": 169792,
      "componentType": 5126,
      "count": 3032,
      "max": [
        193.57130432128906,
        219.94064331054688
      ],
      "min": [
        -198.3400421142578,
        -144.57020568847656
      ],
      "type": "VEC2"
    },
    {
      "bufferView": 1,
      "byteOffset": 194048,
      "componentType": 5126,
      "count": 3032,
      "max": [
        193.57130432128906,
        219.94064331054688
      ],
      "min": [
        -198.3400421142578,
        -144.57020568847656
      ],
      "type": "VEC2"
    },
    {
      "bufferView": 1,
      "byteOffset": 218304,
      "componentType": 5126,
      "count": 3032,
      "max": [
        193.57130432128906,
        219.94064331054688
      ],
      "min": [
        -198.3400421142578,
        -144.57020568847656
      ],
      "type": "VEC2"
    },
    {
      "bufferView": 0,
      "componentType": 5125,
      "count": 6216,
      "type": "SCALAR"
    }
  ],
  "asset": {
    "extras": {
      "author": "Trockk (https://sketchfab.com/Timrockk)",
      "license": "CC-BY-4.0 (http://creativecommons.org/licenses/by/4.0/)",
      "source": "https://sketchfab.com/3d-models/teleport-gate-of-the-sacred-few-1f8248965385462ab8de9e882d3dc001",
      "title": "Teleport Gate of the Sacred Few"
    },
    "generator": "Sketchfab-13.58.0",
    "version": "2.0"
  },
  "bufferViews": [
    {
      "buffer": 0,
      "byteLength": 24864,
      "name": "floatBufferViews",
      "target": 34963
    },
    {
      "buffer": 0,
      "byteLength": 242560,
      "byteOffset": 24864,
      "byteStride": 8,
      "name": "floatBufferViews",
      "target": 34962
    },
    {
      "buffer": 0,
      "byteLength": 72768,
      "byteOffset": 267424,
      "byteStride": 12,
      "name": "floatBufferViews",
      "target": 34962
    }
  ],
  "buffers": [
    {
      "byteLength": 340192,
      "uri": "scene.bin"
    }
  ],
  "materials": [
    {
      "doubleSided": true,
      "name": "FrontColor",
      "pbrMetallicRoughness": {
        "metallicFactor": 0.0,
        "roughnessFactor": 0.9302134966129227
      }
    }
  ],
  "meshes": [
    {
      "name": "Mesh1_FrontColor_0",
      "primitives": [
        {
          "attributes": {
            "NORMAL": 1,
            "POSITION": 0,
            "TEXCOORD_0": 2,
            "TEXCOORD_1": 3,
            "TEXCOORD_2": 4,
            "TEXCOORD_3": 5,
            "TEXCOORD_4": 6,
            "TEXCOORD_5": 7,
            "TEXCOORD_6": 8,
            "TEXCOORD_7": 9,
            "TEXCOORD_8": 10,
            "TEXCOORD_9": 11
          },
          "indices": 12,
          "material": 0,
          "mode": 4
        }
      ]
    }
  ],
  "nodes": [
    {
      "children": [
        1
      ],
      "matrix": [
        1.0,
        0.0,
        0.0,
        0.0,
        0.0,
        2.220446049250313e-16,
        -1.0,
        0.0,
        0.0,
        1.0,
        2.220446049250313e-16,
        0.0,
        0.0,
        0.0,
        0.0,
        1.0
      ],
      "name": "Sketchfab_model"
    },
    {
      "children": [
        2
      ],
      "matrix": [
        0.009999999776482582,
        0.0,
        0.0,
        0.0,
        0.0,
        0.0,
        0.009999999776482582,
        0.0,
        0.0,
        -0.009999999776482582,
        0.0,
        0.0,
        0.0,
        0.0,
        0.0,
        1.0
      ],
      "name": "5121b6170d284ed59259fbe035f5a288.fbx"
    },
    {
      "children": [
        3
      ],
      "name": "RootNode"
    },
    {
      "children": [
        4
      ],
      "name": "Model"
    },
    {
      "children": [
        5
      ],
      "name": "Mesh1"
    },
    {
      "mesh": 0,
      "name": "Mesh1_FrontColor_0"
    }
  ],
  "scene": 0,
  "scenes": [
    {
      "name": "Sketchfab_Scene",
      "nodes": [
        0
      ]
    }
  ]
}
