{
	"asset":{
		"generator":"Khronos glTF Blender I/O v4.0.44",
		"version":"2.0"
	},
	"extensionsUsed":[
		"KHR_materials_unlit"
	],
	"scene":0,
	"scenes":[
		{
			"name":"Scene",
			"nodes":[
				14
			]
		}
	],
	"nodes":[
		{
			"mesh":0,
			"name":"Object_10"
		},
		{
			"mesh":1,
			"name":"Object_11"
		},
		{
			"mesh":2,
			"name":"Object_12"
		},
		{
			"mesh":3,
			"name":"Object_14"
		},
		{
			"mesh":4,
			"name":"Object_15"
		},
		{
			"mesh":5,
			"name":"Object_2"
		},
		{
			"mesh":6,
			"name":"Object_22"
		},
		{
			"mesh":7,
			"name":"Object_23"
		},
		{
			"mesh":8,
			"name":"Object_3"
		},
		{
			"mesh":9,
			"name":"Object_4"
		},
		{
			"mesh":10,
			"name":"Object_6"
		},
		{
			"mesh":11,
			"name":"Object_7"
		},
		{
			"mesh":12,
			"name":"Object_8"
		},
		{
			"children":[
				0,
				1,
				2,
				3,
				4,
				5,
				6,
				7,
				8,
				9,
				10,
				11,
				12
			],
			"name":"anime school.obj.cleaner.materialmerger.gles"
		},
		{
			"children":[
				13
			],
			"name":"Sketchfab_model",
			"rotation":[
				-0.70710688829422,
				0,
				0,
				0.7071066498756409
			]
		}
	],
	"materials":[
		{
			"doubleSided":true,
			"extensions":{
				"KHR_materials_unlit":{}
			},
			"name":"Material.037",
			"pbrMetallicRoughness":{
				"baseColorTexture":{
					"index":0
				},
				"metallicFactor":0,
				"roughnessFactor":0.9
			}
		},
		{
			"doubleSided":true,
			"extensions":{
				"KHR_materials_unlit":{}
			},
			"name":"Material.059",
			"pbrMetallicRoughness":{
				"baseColorTexture":{
					"index":1
				},
				"metallicFactor":0,
				"roughnessFactor":0.9
			}
		},
		{
			"doubleSided":true,
			"extensions":{
				"KHR_materials_unlit":{}
			},
			"name":"Material.062",
			"pbrMetallicRoughness":{
				"baseColorTexture":{
					"index":2
				},
				"metallicFactor":0,
				"roughnessFactor":0.9
			}
		},
		{
			"doubleSided":true,
			"extensions":{
				"KHR_materials_unlit":{}
			},
			"name":"Material.003",
			"pbrMetallicRoughness":{
				"baseColorTexture":{
					"index":3
				},
				"metallicFactor":0,
				"roughnessFactor":0.9
			}
		},
		{
			"doubleSided":true,
			"extensions":{
				"KHR_materials_unlit":{}
			},
			"name":"Material.009",
			"pbrMetallicRoughness":{
				"baseColorTexture":{
					"index":4
				},
				"metallicFactor":0,
				"roughnessFactor":0.9
			}
		},
		{
			"doubleSided":true,
			"extensions":{
				"KHR_materials_unlit":{}
			},
			"name":"Material.002",
			"pbrMetallicRoughness":{
				"baseColorTexture":{
					"index":5
				},
				"metallicFactor":0,
				"roughnessFactor":0.9
			}
		},
		{
			"doubleSided":true,
			"extensions":{
				"KHR_materials_unlit":{}
			},
			"name":"Material.028",
			"pbrMetallicRoughness":{
				"baseColorTexture":{
					"index":6
				},
				"metallicFactor":0,
				"roughnessFactor":0.9
			}
		},
		{
			"doubleSided":true,
			"extensions":{
				"KHR_materials_unlit":{}
			},
			"name":"Material.054",
			"pbrMetallicRoughness":{
				"baseColorTexture":{
					"index":7
				},
				"metallicFactor":0,
				"roughnessFactor":0.9
			}
		},
		{
			"doubleSided":true,
			"extensions":{
				"KHR_materials_unlit":{}
			},
			"name":"Material.004",
			"pbrMetallicRoughness":{
				"baseColorTexture":{
					"index":8
				},
				"metallicFactor":0,
				"roughnessFactor":0.9
			}
		},
		{
			"doubleSided":true,
			"extensions":{
				"KHR_materials_unlit":{}
			},
			"name":"Material.007",
			"pbrMetallicRoughness":{
				"baseColorTexture":{
					"index":9
				},
				"metallicFactor":0,
				"roughnessFactor":0.9
			}
		},
		{
			"doubleSided":true,
			"extensions":{
				"KHR_materials_unlit":{}
			},
			"name":"Material.013",
			"pbrMetallicRoughness":{
				"baseColorTexture":{
					"index":10
				},
				"metallicFactor":0,
				"roughnessFactor":0.9
			}
		},
		{
			"doubleSided":true,
			"extensions":{
				"KHR_materials_unlit":{}
			},
			"name":"Material.012",
			"pbrMetallicRoughness":{
				"baseColorTexture":{
					"index":11
				},
				"metallicFactor":0,
				"roughnessFactor":0.9
			}
		},
		{
			"doubleSided":true,
			"extensions":{
				"KHR_materials_unlit":{}
			},
			"name":"Material.033",
			"pbrMetallicRoughness":{
				"baseColorTexture":{
					"index":12
				},
				"metallicFactor":0,
				"roughnessFactor":0.9
			}
		}
	],
	"meshes":[
		{
			"name":"Object_8",
			"primitives":[
				{
					"attributes":{
						"POSITION":0,
						"NORMAL":1,
						"TEXCOORD_0":2
					},
					"indices":3,
					"material":0
				}
			]
		},
		{
			"name":"Object_9",
			"primitives":[
				{
					"attributes":{
						"POSITION":4,
						"NORMAL":5,
						"TEXCOORD_0":6
					},
					"indices":7,
					"material":1
				}
			]
		},
		{
			"name":"Object_10",
			"primitives":[
				{
					"attributes":{
						"POSITION":8,
						"NORMAL":9,
						"TEXCOORD_0":10
					},
					"indices":11,
					"material":2
				}
			]
		},
		{
			"name":"Object_12",
			"primitives":[
				{
					"attributes":{
						"POSITION":12,
						"NORMAL":13,
						"TEXCOORD_0":14
					},
					"indices":15,
					"material":3
				}
			]
		},
		{
			"name":"Object_13",
			"primitives":[
				{
					"attributes":{
						"POSITION":16,
						"NORMAL":17,
						"TEXCOORD_0":18
					},
					"indices":19,
					"material":4
				}
			]
		},
		{
			"name":"Object_0",
			"primitives":[
				{
					"attributes":{
						"POSITION":20,
						"NORMAL":21,
						"TEXCOORD_0":22
					},
					"indices":23,
					"material":5
				}
			]
		},
		{
			"name":"Object_20",
			"primitives":[
				{
					"attributes":{
						"POSITION":24,
						"NORMAL":25,
						"TEXCOORD_0":26
					},
					"indices":27,
					"material":6
				}
			]
		},
		{
			"name":"Object_21",
			"primitives":[
				{
					"attributes":{
						"POSITION":28,
						"NORMAL":29,
						"TEXCOORD_0":30
					},
					"indices":31,
					"material":7
				}
			]
		},
		{
			"name":"Object_1",
			"primitives":[
				{
					"attributes":{
						"POSITION":32,
						"NORMAL":33,
						"TEXCOORD_0":34
					},
					"indices":35,
					"material":8
				}
			]
		},
		{
			"name":"Object_2",
			"primitives":[
				{
					"attributes":{
						"POSITION":36,
						"NORMAL":37,
						"TEXCOORD_0":38
					},
					"indices":39,
					"material":9
				}
			]
		},
		{
			"name":"Object_4",
			"primitives":[
				{
					"attributes":{
						"POSITION":40,
						"NORMAL":41,
						"TEXCOORD_0":42
					},
					"indices":43,
					"material":10
				}
			]
		},
		{
			"name":"Object_5",
			"primitives":[
				{
					"attributes":{
						"POSITION":44,
						"NORMAL":45,
						"TEXCOORD_0":46
					},
					"indices":47,
					"material":11
				}
			]
		},
		{
			"name":"Object_6",
			"primitives":[
				{
					"attributes":{
						"POSITION":48,
						"NORMAL":49,
						"TEXCOORD_0":50
					},
					"indices":51,
					"material":12
				}
			]
		}
	],
	"textures":[
		{
			"sampler":0,
			"source":0
		},
		{
			"sampler":0,
			"source":1
		},
		{
			"sampler":0,
			"source":2
		},
		{
			"sampler":0,
			"source":3
		},
		{
			"sampler":0,
			"source":4
		},
		{
			"sampler":0,
			"source":5
		},
		{
			"sampler":0,
			"source":6
		},
		{
			"sampler":0,
			"source":7
		},
		{
			"sampler":0,
			"source":8
		},
		{
			"sampler":0,
			"source":9
		},
		{
			"sampler":0,
			"source":10
		},
		{
			"sampler":0,
			"source":11
		},
		{
			"sampler":0,
			"source":12
		}
	],
	"images":[
		{
			"mimeType":"image/png",
			"name":"Material.037_baseColor",
			"uri":"Material_037_baseColor.png"
		},
		{
			"mimeType":"image/png",
			"name":"Material.059_baseColor",
			"uri":"Material_059_baseColor.png"
		},
		{
			"mimeType":"image/png",
			"name":"Material.062_baseColor",
			"uri":"Material_062_baseColor.png"
		},
		{
			"mimeType":"image/png",
			"name":"Material.003_baseColor",
			"uri":"Material_003_baseColor.png"
		},
		{
			"mimeType":"image/png",
			"name":"Material.009_baseColor",
			"uri":"Material_009_baseColor.png"
		},
		{
			"mimeType":"image/png",
			"name":"Material.002_baseColor",
			"uri":"Material_002_baseColor.png"
		},
		{
			"mimeType":"image/png",
			"name":"Material.028_baseColor",
			"uri":"Material_028_baseColor.png"
		},
		{
			"mimeType":"image/png",
			"name":"Material.054_baseColor",
			"uri":"Material_054_baseColor.png"
		},
		{
			"mimeType":"image/jpeg",
			"name":"Material.004_baseColor",
			"uri":"Material_004_baseColor.jpg"
		},
		{
			"mimeType":"image/png",
			"name":"Material.007_baseColor",
			"uri":"Material_007_baseColor.png"
		},
		{
			"mimeType":"image/png",
			"name":"Material.013_baseColor",
			"uri":"Material_013_baseColor.png"
		},
		{
			"mimeType":"image/png",
			"name":"Material.012_baseColor",
			"uri":"Material_012_baseColor.png"
		},
		{
			"mimeType":"image/png",
			"name":"Material.033_baseColor",
			"uri":"Material_033_baseColor.png"
		}
	],
	"accessors":[
		{
			"bufferView":0,
			"componentType":5126,
			"count":20,
			"max":[
				5.957622051239014,
				-18.794967651367188,
				4.078827857971191
			],
			"min":[
				2.9577910900115967,
				-18.794967651367188,
				1.8853830099105835
			],
			"type":"VEC3"
		},
		{
			"bufferView":1,
			"componentType":5126,
			"count":20,
			"type":"VEC3"
		},
		{
			"bufferView":2,
			"componentType":5126,
			"count":20,
			"type":"VEC2"
		},
		{
			"bufferView":3,
			"componentType":5123,
			"count":36,
			"type":"SCALAR"
		},
		{
			"bufferView":4,
			"componentType":5126,
			"count":42,
			"max":[
				8.103413581848145,
				5.950139999389648,
				-0.9408439993858337
			],
			"min":[
				-12.928171157836914,
				-18.82175064086914,
				-0.9408439993858337
			],
			"type":"VEC3"
		},
		{
			"bufferView":5,
			"componentType":5126,
			"count":42,
			"type":"VEC3"
		},
		{
			"bufferView":6,
			"componentType":5126,
			"count":42,
			"type":"VEC2"
		},
		{
			"bufferView":7,
			"componentType":5123,
			"count":150,
			"type":"SCALAR"
		},
		{
			"bufferView":8,
			"componentType":5126,
			"count":1698,
			"max":[
				8.386359214782715,
				5.950139999389648,
				9.13060188293457
			],
			"min":[
				-20.86418342590332,
				-62.01608657836914,
				-1.0939890146255493
			],
			"type":"VEC3"
		},
		{
			"bufferView":9,
			"componentType":5126,
			"count":1698,
			"type":"VEC3"
		},
		{
			"bufferView":10,
			"componentType":5126,
			"count":1698,
			"type":"VEC2"
		},
		{
			"bufferView":11,
			"componentType":5123,
			"count":3915,
			"type":"SCALAR"
		},
		{
			"bufferView":12,
			"componentType":5126,
			"count":347,
			"max":[
				0.824533998966217,
				-18.198286056518555,
				6.7163310050964355
			],
			"min":[
				-3.1557350158691406,
				-18.934045791625977,
				5.334917068481445
			],
			"type":"VEC3"
		},
		{
			"bufferView":13,
			"componentType":5126,
			"count":347,
			"type":"VEC3"
		},
		{
			"bufferView":14,
			"componentType":5126,
			"count":347,
			"type":"VEC2"
		},
		{
			"bufferView":15,
			"componentType":5123,
			"count":546,
			"type":"SCALAR"
		},
		{
			"bufferView":16,
			"componentType":5126,
			"count":1031,
			"max":[
				6.125269889831543,
				-15.201393127441406,
				9.189481735229492
			],
			"min":[
				-15.486042022705078,
				-19.208934783935547,
				6.059195041656494
			],
			"type":"VEC3"
		},
		{
			"bufferView":17,
			"componentType":5126,
			"count":1031,
			"type":"VEC3"
		},
		{
			"bufferView":18,
			"componentType":5126,
			"count":1031,
			"type":"VEC2"
		},
		{
			"bufferView":19,
			"componentType":5123,
			"count":2268,
			"type":"SCALAR"
		},
		{
			"bufferView":20,
			"componentType":5126,
			"count":868,
			"max":[
				7.885817050933838,
				5.270256042480469,
				8.124734878540039
			],
			"min":[
				7.1280012130737305,
				-19.066234588623047,
				-0.543192982673645
			],
			"type":"VEC3"
		},
		{
			"bufferView":21,
			"componentType":5126,
			"count":868,
			"type":"VEC3"
		},
		{
			"bufferView":22,
			"componentType":5126,
			"count":868,
			"type":"VEC2"
		},
		{
			"bufferView":23,
			"componentType":5123,
			"count":2268,
			"type":"SCALAR"
		},
		{
			"bufferView":24,
			"componentType":5126,
			"count":1039,
			"max":[
				7.3174519538879395,
				-18.073486328125,
				1.8356549739837646
			],
			"min":[
				6.341311931610107,
				-18.437786102294922,
				1.3037019968032837
			],
			"type":"VEC3"
		},
		{
			"bufferView":25,
			"componentType":5126,
			"count":1039,
			"type":"VEC3"
		},
		{
			"bufferView":26,
			"componentType":5126,
			"count":1039,
			"type":"VEC2"
		},
		{
			"bufferView":27,
			"componentType":5123,
			"count":3060,
			"type":"SCALAR"
		},
		{
			"bufferView":28,
			"componentType":5126,
			"count":899,
			"max":[
				7.4995341300964355,
				-15.376420974731445,
				1.27252197265625
			],
			"min":[
				-11.383268356323242,
				-18.801841735839844,
				-0.9725670218467712
			],
			"type":"VEC3"
		},
		{
			"bufferView":29,
			"componentType":5126,
			"count":899,
			"type":"VEC3"
		},
		{
			"bufferView":30,
			"componentType":5126,
			"count":899,
			"type":"VEC2"
		},
		{
			"bufferView":31,
			"componentType":5123,
			"count":1704,
			"type":"SCALAR"
		},
		{
			"bufferView":32,
			"componentType":5126,
			"count":4,
			"max":[
				17.176902770996094,
				27.677461624145508,
				30.183122634887695
			],
			"min":[
				16.685810089111328,
				-42.33427047729492,
				-2.1125240325927734
			],
			"type":"VEC3"
		},
		{
			"bufferView":33,
			"componentType":5126,
			"count":4,
			"type":"VEC3"
		},
		{
			"bufferView":34,
			"componentType":5126,
			"count":4,
			"type":"VEC2"
		},
		{
			"bufferView":35,
			"componentType":5123,
			"count":6,
			"type":"SCALAR"
		},
		{
			"bufferView":36,
			"componentType":5126,
			"count":88,
			"max":[
				7.00534200668335,
				-18.766855239868164,
				4.595086097717285
			],
			"min":[
				-11.429388999938965,
				-18.810710906982422,
				1.28302800655365
			],
			"type":"VEC3"
		},
		{
			"bufferView":37,
			"componentType":5126,
			"count":88,
			"type":"VEC3"
		},
		{
			"bufferView":38,
			"componentType":5126,
			"count":88,
			"type":"VEC2"
		},
		{
			"bufferView":39,
			"componentType":5123,
			"count":156,
			"type":"SCALAR"
		},
		{
			"bufferView":40,
			"componentType":5126,
			"count":127,
			"max":[
				2.3385229110717773,
				-18.59984588623047,
				4.595086097717285
			],
			"min":[
				-6.762575149536133,
				-18.810710906982422,
				1.2344529628753662
			],
			"type":"VEC3"
		},
		{
			"bufferView":41,
			"componentType":5126,
			"count":127,
			"type":"VEC3"
		},
		{
			"bufferView":42,
			"componentType":5126,
			"count":127,
			"type":"VEC2"
		},
		{
			"bufferView":43,
			"componentType":5123,
			"count":210,
			"type":"SCALAR"
		},
		{
			"bufferView":44,
			"componentType":5126,
			"count":90,
			"max":[
				-0.01007699966430664,
				-18.663604736328125,
				1.3579909801483154
			],
			"min":[
				-2.370728015899658,
				-18.76000213623047,
				1.2819420099258423
			],
			"type":"VEC3"
		},
		{
			"bufferView":45,
			"componentType":5126,
			"count":90,
			"type":"VEC3"
		},
		{
			"bufferView":46,
			"componentType":5126,
			"count":90,
			"type":"VEC2"
		},
		{
			"bufferView":47,
			"componentType":5123,
			"count":108,
			"type":"SCALAR"
		},
		{
			"bufferView":48,
			"componentType":5126,
			"count":28,
			"max":[
				6.628028869628906,
				-18.79290771484375,
				4.148717880249023
			],
			"min":[
				-10.518327713012695,
				-18.797027587890625,
				1.8567370176315308
			],
			"type":"VEC3"
		},
		{
			"bufferView":49,
			"componentType":5126,
			"count":28,
			"type":"VEC3"
		},
		{
			"bufferView":50,
			"componentType":5126,
			"count":28,
			"type":"VEC2"
		},
		{
			"bufferView":51,
			"componentType":5123,
			"count":42,
			"type":"SCALAR"
		}
	],
	"bufferViews":[
		{
			"buffer":0,
			"byteLength":240,
			"byteOffset":0,
			"target":34962
		},
		{
			"buffer":0,
			"byteLength":240,
			"byteOffset":240,
			"target":34962
		},
		{
			"buffer":0,
			"byteLength":160,
			"byteOffset":480,
			"target":34962
		},
		{
			"buffer":0,
			"byteLength":72,
			"byteOffset":640,
			"target":34963
		},
		{
			"buffer":0,
			"byteLength":504,
			"byteOffset":712,
			"target":34962
		},
		{
			"buffer":0,
			"byteLength":504,
			"byteOffset":1216,
			"target":34962
		},
		{
			"buffer":0,
			"byteLength":336,
			"byteOffset":1720,
			"target":34962
		},
		{
			"buffer":0,
			"byteLength":300,
			"byteOffset":2056,
			"target":34963
		},
		{
			"buffer":0,
			"byteLength":20376,
			"byteOffset":2356,
			"target":34962
		},
		{
			"buffer":0,
			"byteLength":20376,
			"byteOffset":22732,
			"target":34962
		},
		{
			"buffer":0,
			"byteLength":13584,
			"byteOffset":43108,
			"target":34962
		},
		{
			"buffer":0,
			"byteLength":7830,
			"byteOffset":56692,
			"target":34963
		},
		{
			"buffer":0,
			"byteLength":4164,
			"byteOffset":64524,
			"target":34962
		},
		{
			"buffer":0,
			"byteLength":4164,
			"byteOffset":68688,
			"target":34962
		},
		{
			"buffer":0,
			"byteLength":2776,
			"byteOffset":72852,
			"target":34962
		},
		{
			"buffer":0,
			"byteLength":1092,
			"byteOffset":75628,
			"target":34963
		},
		{
			"buffer":0,
			"byteLength":12372,
			"byteOffset":76720,
			"target":34962
		},
		{
			"buffer":0,
			"byteLength":12372,
			"byteOffset":89092,
			"target":34962
		},
		{
			"buffer":0,
			"byteLength":8248,
			"byteOffset":101464,
			"target":34962
		},
		{
			"buffer":0,
			"byteLength":4536,
			"byteOffset":109712,
			"target":34963
		},
		{
			"buffer":0,
			"byteLength":10416,
			"byteOffset":114248,
			"target":34962
		},
		{
			"buffer":0,
			"byteLength":10416,
			"byteOffset":124664,
			"target":34962
		},
		{
			"buffer":0,
			"byteLength":6944,
			"byteOffset":135080,
			"target":34962
		},
		{
			"buffer":0,
			"byteLength":4536,
			"byteOffset":142024,
			"target":34963
		},
		{
			"buffer":0,
			"byteLength":12468,
			"byteOffset":146560,
			"target":34962
		},
		{
			"buffer":0,
			"byteLength":12468,
			"byteOffset":159028,
			"target":34962
		},
		{
			"buffer":0,
			"byteLength":8312,
			"byteOffset":171496,
			"target":34962
		},
		{
			"buffer":0,
			"byteLength":6120,
			"byteOffset":179808,
			"target":34963
		},
		{
			"buffer":0,
			"byteLength":10788,
			"byteOffset":185928,
			"target":34962
		},
		{
			"buffer":0,
			"byteLength":10788,
			"byteOffset":196716,
			"target":34962
		},
		{
			"buffer":0,
			"byteLength":7192,
			"byteOffset":207504,
			"target":34962
		},
		{
			"buffer":0,
			"byteLength":3408,
			"byteOffset":214696,
			"target":34963
		},
		{
			"buffer":0,
			"byteLength":48,
			"byteOffset":218104,
			"target":34962
		},
		{
			"buffer":0,
			"byteLength":48,
			"byteOffset":218152,
			"target":34962
		},
		{
			"buffer":0,
			"byteLength":32,
			"byteOffset":218200,
			"target":34962
		},
		{
			"buffer":0,
			"byteLength":12,
			"byteOffset":218232,
			"target":34963
		},
		{
			"buffer":0,
			"byteLength":1056,
			"byteOffset":218244,
			"target":34962
		},
		{
			"buffer":0,
			"byteLength":1056,
			"byteOffset":219300,
			"target":34962
		},
		{
			"buffer":0,
			"byteLength":704,
			"byteOffset":220356,
			"target":34962
		},
		{
			"buffer":0,
			"byteLength":312,
			"byteOffset":221060,
			"target":34963
		},
		{
			"buffer":0,
			"byteLength":1524,
			"byteOffset":221372,
			"target":34962
		},
		{
			"buffer":0,
			"byteLength":1524,
			"byteOffset":222896,
			"target":34962
		},
		{
			"buffer":0,
			"byteLength":1016,
			"byteOffset":224420,
			"target":34962
		},
		{
			"buffer":0,
			"byteLength":420,
			"byteOffset":225436,
			"target":34963
		},
		{
			"buffer":0,
			"byteLength":1080,
			"byteOffset":225856,
			"target":34962
		},
		{
			"buffer":0,
			"byteLength":1080,
			"byteOffset":226936,
			"target":34962
		},
		{
			"buffer":0,
			"byteLength":720,
			"byteOffset":228016,
			"target":34962
		},
		{
			"buffer":0,
			"byteLength":216,
			"byteOffset":228736,
			"target":34963
		},
		{
			"buffer":0,
			"byteLength":336,
			"byteOffset":228952,
			"target":34962
		},
		{
			"buffer":0,
			"byteLength":336,
			"byteOffset":229288,
			"target":34962
		},
		{
			"buffer":0,
			"byteLength":224,
			"byteOffset":229624,
			"target":34962
		},
		{
			"buffer":0,
			"byteLength":84,
			"byteOffset":229848,
			"target":34963
		}
	],
	"samplers":[
		{
			"magFilter":9729,
			"minFilter":9987
		}
	],
	"buffers":[
		{
			"byteLength":229932,
			"uri":"noDeskClassroom.bin"
		}
	]
}
